<?xml version="1.0"?>
<svg version="1.1" id="圖層_1" xmlns="http://www.w3.org/2000/svg" x="0" y="0" viewBox="0 0 100 100" xml:space="preserve"><path d="M80.8 22c-3.7 1.6-7.4 3.9-10.8 6.7-5.5-6.7-10.2-13.4-9.3-21.2C49.5 12.1 38.6 18.9 30.3 27c-.6-2-.9-4.1-1-6.4-12 10.9-16.3 30.6-12.7 46 8 38.6 64.6 31.8 67.5-6.2C87 45.6 77.4 34.7 80.8 22z" fill="#c33737"/><path d="M65.9 47c-2 1-3.6 7.7-5.4 9.4-3.3-3.4-6.5-12.1-6.4-16.3-6.1 3-11.5 12.4-15.7 17.1-.4-1-1.1-7.5-1.2-8.7-6.2 6.3-7.8 17-5.1 25 6.1 20.2 37.2 14 37.2-6.3 1.1-8-4.7-13.4-3.4-20.2z" fill="#f47e60"/><ellipse cx="49.5" cy="76" rx="8.2" ry="4.8" fill="#f8b26a"/><metadata xmlns:d="https://loading.io/stock/"><d:name>fire</d:name><d:tags>flame,flare,burn,scorch,fire,weather</d:tags><d:license>pro</d:license><d:slug>cu4w4x</d:slug></metadata></svg>