<svg enable-background="new 0 0 48 48" viewBox="0 0 48 48" xmlns="http://www.w3.org/2000/svg"><path d="m38.6 27.03h1.79l-4.59-6.17-4.6 6.17h1.79v7.97 1h1v-1-8.97h-.79l2.6-3.5 2.6 3.5h-.8v8.97h.01v1h1v-1h-.01zm-9.94 4-4.59-6.17-4.6 6.17h1.79v3.97.31.69h1v-.69-.31-4.97h-.8l2.61-3.5 2.6 3.5h-.8v5.28.69h1v-1-3.97zm-16.36-2.17-4.59 6.17 1.79-.02v.99h1v-1-.97h-.8l2.6-3.5 2.61 3.5h-.8v.97 1h1v-.99l1.79.02zm1.81 10.14h1v1h-1zm0-2h1v1h-1zm-4.61 2h1v1h-1zm0-2h1v1h-1zm11.76 0h1v1h-1zm0 2h1v1h-1zm4.61 0h1v1h-1zm0-2h1v1h-1zm7.12 0h1v1h-1zm0 2h1v1h-1zm4.62 0h1v1h-1zm0-2h1v1h-1zm.13-22.55.99-.16-.72-4.58-4.65.72.15.99 2.96-.46-6.08 8.17-4.54-5.67-7.2 9.67-4.56-5.66-7.59 10.17.81.6 6.81-9.14 4.56 5.66 7.2-9.66 4.53 5.66 6.88-9.23z"/></svg>